#!OML:ASF Y:\EmotionMaleHayes\Project 1\Capture day 1\Session 1\Male1.ASF
:FULLY-SPECIFIED
:DEGREES
1524
root 44.9559 17.1127 -13.268 183.53 -37.1667 177.275
lowerback 8.48534 2.59323 -10.5692
upperback 7.35679 2.09316 -3.59069
thorax 2.71224 0.370369 1.99627
lowerneck -18.8578 15.8967 15.5097
upperneck 25.8913 23.5908 -20.0118
head 17.4116 8.8779 -5.82242
rclavicle -7.23576e-014 9.54166e-015
rhumerus -70.5569 13.7188 -86.3277
rradius 64.3645
rwrist -7.99414
rhand -5.60617 -32.482
rfingers 7.12502
rthumb 20.2109 -61.4506
lclavicle -7.23576e-014 9.54166e-015
lhumerus -9.39562 -40.7599 79.7035
lradius 88.0253
lwrist 12.6958
lhand -32.7709 -31.7313
lfingers 7.12502
lthumb -5.99305 -1.83609
rfemur -7.60601 -2.8116 3.09551
rtibia 11.7185
rfoot -8.7401 -5.18303
rtoes 9.31613
lfemur 7.91806 -10.1602 -27.8221
ltibia 19.1884
lfoot -18.0701 8.5507
ltoes -2.96831
1525
root 44.8984 17.1075 -13.363 183.617 -37.7236 176.845
lowerback 8.33668 2.61821 -10.5311
upperback 7.27668 2.17113 -3.45117
thorax 2.69694 0.422558 2.12052
lowerneck -18.8092 16.0019 15.7956
upperneck 26.3011 23.8681 -20.3877
head 17.833 8.94255 -6.0031
rclavicle 1.15693e-013 2.70347e-014
rhumerus -71.3513 14.5972 -86.4466
rradius 65.5011
rwrist -7.87023
rhand -5.60511 -32.2032
rfingers 7.12502
rthumb 20.2119 -61.1717
lclavicle 1.15693e-013 2.70347e-014
lhumerus -9.88752 -41.3907 79.9096
lradius 88.3096
lwrist 12.8341
lhand -33.1082 -32.1379
lfingers 7.12502
lthumb -6.31868 -2.25216
rfemur -7.33276 -2.81115 2.58993
rtibia 12.1441
rfoot -9.21012 -5.83364
rtoes 8.35477
lfemur 7.91806 -10.1602 -27.8221
ltibia 19.1884
lfoot -18.0701 8.5507
ltoes -2.96831
1526
root 44.8684 17.0953 -13.4516 184.079 -38.6857 176.298
lowerback 8.25421 2.55078 -10.6336
upperback 7.15435 2.10601 -3.36278
thorax 2.61582 0.403644 2.27636
lowerneck -19.0182 15.7584 15.0557
upperneck 26.5007 23.5694 -19.8556
head 17.6522 8.78529 -5.73253
rclavicle -6.95746e-014 5.88403e-014
rhumerus -71.9428 15.3716 -86.6461
rradius 66.6294
rwrist -7.62671
rhand -5.61277 -32.2368
rfingers 7.12502
rthumb 20.2046 -61.2061
lclavicle -6.95746e-014 5.88403e-014
lhumerus -10.2892 -42.3162 80.0151
lradius 88.4647
lwrist 13.2875
lhand -33.7162 -32.318
lfingers 7.12502
lthumb -6.90561 -2.45061
rfemur -7.31497 -3.3347 2.12703
rtibia 12.8614
rfoot -9.87402 -6.63614
rtoes 5.09799
lfemur 7.91806 -10.1602 -27.8221
ltibia 19.1884
lfoot -18.0701 8.5507
ltoes -2.96831
1527
root 44.8074 17.0933 -13.5426 184.238 -39.2863 175.89
lowerback 8.11327 2.52076 -10.2973
upperback 7.13061 2.11985 -3.38242
thorax 2.67406 0.429176 2.07495
lowerneck -19.1717 15.9372 15.3104
upperneck 26.7295 23.8457 -19.9488
head 17.9484 8.88658 -5.74389
rclavicle 2.62396e-014 -9.06458e-014
rhumerus -72.3213 16.1986 -86.8315
rradius 67.5659
rwrist -7.6655
rhand -5.37083 -32.08
rfingers 7.12502
rthumb 20.4371 -61.0245
lclavicle 2.62396e-014 -9.06458e-014
lhumerus -10.653 -43.0554 79.9022
lradius 88.365
lwrist 13.4138
lhand -34.1535 -32.9751
lfingers 7.12502
lthumb -7.32775 -3.12194
rfemur -7.0769 -3.8178 1.64352
rtibia 13.7772
rfoot -10.602 -6.70374
rtoes 3.32701
lfemur 7.91806 -10.1602 -27.8221
ltibia 19.1884
lfoot -18.0701 8.5507
ltoes -2.96831
1528
root 44.7535 17.0871 -13.6281 184.347 -39.9172 175.659
lowerback 8.01746 2.60345 -9.99436
upperback 7.0521 2.28193 -3.24964
thorax 2.62775 0.535635 2.04017
lowerneck -19.261 15.6461 14.8486
upperneck 26.9563 23.4965 -19.7016
head 17.8627 8.70911 -5.67746
rclavicle -4.17448e-014 -1.59028e-014
rhumerus -72.6444 16.6288 -86.7171
rradius 68.3615
rwrist -7.97779
rhand -5.18607 -32.0143
rfingers 7.12502
rthumb 20.6146 -60.9396
lclavicle -4.17448e-014 -1.59028e-014
lhumerus -11.0198 -43.7993 80.1003
lradius 88.1564
lwrist 13.0947
lhand -34.2478 -33.6161
lfingers 7.12502
lthumb -7.41879 -3.7662
rfemur -6.87555 -4.03947 1.42205
rtibia 14.8835
rfoot -11.7567 -6.48749
rtoes 4.16248
lfemur 7.91806 -10.1602 -27.8221
ltibia 19.1884
lfoot -18.0701 8.5507
ltoes -2.96831
1529
root 44.7177 17.0734 -13.7095 184.594 -40.7329 175.419
lowerback 8.07275 2.61129 -9.78619
upperback 6.84871 2.32058 -3.06618
thorax 2.37549 0.592717 2.11353
lowerneck -19.3201 15.6108 15.0853
upperneck 27.3042 23.5013 -19.8939
head 18.158 8.68569 -5.83629
rclavicle 4.37326e-014 9.54166e-015
rhumerus -72.8881 17.0828 -86.5415
rradius 69.0628
rwrist -8.80035
rhand -4.84008 -32.18
rfingers 7.12502
rthumb 20.9471 -61.0689
lclavicle 4.37326e-014 9.54166e-015
lhumerus -11.8436 -44.5228 80.7174
lradius 88.2025
lwrist 13.417
lhand -34.3192 -33.6625
lfingers 7.12502
lthumb -7.48766 -3.81501
rfemur -6.69336 -4.13321 1.32378
rtibia 15.8834
rfoot -13.1163 -6.52059
rtoes 4.24787
lfemur 7.91806 -10.1602 -27.8221
ltibia 19.1884
lfoot -18.0701 8.5507
ltoes -2.96831
1530
root 44.6398 17.062 -13.796 184.866 -40.9263 174.914
lowerback 7.79892 2.79147 -9.51384
upperback 6.7498 2.62697 -3.04739
thorax 2.39665 0.767053 1.97102
lowerneck -19.2489 15.4541 14.7353
upperneck 27.5438 23.3395 -19.6438
head 18.1073 8.60448 -5.73548
rclavicle -5.48646e-014 -5.00937e-014
rhumerus -72.9253 17.4985 -86.2929
rradius 69.561
rwrist -9.91169
rhand -4.35315 -32.2701
rfingers 7.12502
rthumb 21.4148 -61.1066
lclavicle -5.48646e-014 -5.00937e-014
lhumerus -12.7283 -45.3008 81.2277
lradius 88.2527
lwrist 13.7836
lhand -34.1049 -33.7833
lfingers 7.12502
lthumb -7.28079 -3.92852
rfemur -6.39316 -4.11387 0.72778
rtibia 16.5408
rfoot -13.9459 -6.2911
rtoes 2.75449
lfemur 9.43323 -9.73134 -28.9235
ltibia 20.9172
lfoot -18.3736 5.83025
ltoes -8.70415
1531
root 44.606 17.0554 -13.8713 185.142 -41.7063 174.421
lowerback 8.10007 2.84919 -9.36531
upperback 6.57606 2.68144 -2.98034
thorax 2.04255 0.826382 1.94405
lowerneck -19.2362 15.316 14.4501
upperneck 27.8266 23.1807 -19.3657
head 18.1009 8.5295 -5.63036
rclavicle -5.76476e-014 0
rhumerus -72.7935 17.796 -86.1474
rradius 69.7114
rwrist -10.5276
rhand -4.32902 -32.2127
rfingers 7.12502
rthumb 21.438 -61.0465
lclavicle -5.76476e-014 0
lhumerus -13.6598 -46.0507 81.7115
lradius 88.1228
lwrist 13.8101
lhand -33.9682 -33.6721
lfingers 7.12502
lthumb -7.14884 -3.81282
rfemur -5.84882 -4.25088 0.411153
rtibia 16.8133
rfoot -14.5042 -6.74208
rtoes 0.86783
lfemur 9.03932 -9.10498 -28.6809
ltibia 22.404
lfoot -18.5133 3.92306
ltoes -5.62232
1532
root 44.5481 17.053 -13.9487 184.991 -42.1887 174.64
lowerback 8.09015 2.9155 -8.5629
upperback 6.44739 2.84474 -2.81879
thorax 1.9157 0.956009 1.65903
lowerneck -19.0801 15.2654 14.33
upperneck 27.9948 23.1749 -19.3195
head 18.1224 8.51984 -5.61437
rclavicle -3.57812e-014 9.54166e-015
rhumerus -72.414 18.1333 -85.9957
rradius 69.5554
rwrist -11.0341
rhand -4.54726 -32.4556
rfingers 7.12502
rthumb 21.2284 -61.3132
lclavicle -3.57812e-014 9.54166e-015
lhumerus -14.9966 -46.4944 82.5915
lradius 88.0464
lwrist 13.7481
lhand -34.2503 -32.8611
lfingers 7.12502
lthumb -7.42122 -3.01129
rfemur -5.38689 -4.36431 0.609814
rtibia 16.8957
rfoot -14.8173 -7.18116
rtoes -0.878212
lfemur 8.75539 -8.82991 -28.0783
ltibia 23.3752
lfoot -18.2325 3.10079
ltoes -6.26424
1533
root 44.5222 17.0472 -14.015 185.075 -43.1288 174.674
lowerback 8.42092 2.83969 -8.05852
upperback 6.21447 2.7606 -2.59138
thorax 1.50293 0.962934 1.60938
lowerneck -19.0753 15.1151 14.1626
upperneck 28.3201 23.0289 -19.241
head 18.2174 8.43154 -5.62528
rclavicle -3.3197e-014 6.99722e-014
rhumerus -71.8661 18.5316 -85.7401
rradius 69.337
rwrist -11.954
rhand -4.61663 -32.9967
rfingers 7.12502
rthumb 21.1617 -61.8617
lclavicle -3.3197e-014 6.99722e-014
lhumerus -16.5786 -46.6301 83.6861
lradius 88.1019
lwrist 13.6322
lhand -33.1553 -33.441
lfingers 7.12502
lthumb -6.36416 -3.55663
rfemur -4.84005 -4.68649 0.781736
rtibia 16.7955
rfoot -15.1248 -7.76332
rtoes -1.50323
lfemur 8.15259 -8.85307 -27.5079
ltibia 24.7184
lfoot -17.7333 2.0066
ltoes -7.16522
1534
root 44.4459 17.0452 -14.0856 185.06 -43.4479 174.551
lowerback 8.38958 2.9578 -7.3183
upperback 6.13968 2.98576 -2.52258
thorax 1.44842 1.10984 1.25509
lowerneck -19.1397 14.881 13.8601
upperneck 28.7234 22.7338 -18.961
head 18.2634 8.28667 -5.56358
rclavicle -1.98785e-015 4.25399e-014
rhumerus -71.191 18.7959 -85.3557
rradius 69.0884
rwrist -13.1485
rhand -4.35484 -33.387
rfingers 7.12502
rthumb 21.4132 -62.2237
lclavicle -1.98785e-015 4.25399e-014
lhumerus -18.1661 -46.5775 84.814
lradius 87.9726
lwrist 12.9306
lhand -32.3884 -33.1191
lfingers 7.12502
lthumb -5.62375 -3.2137
rfemur -4.19812 -4.7714 0.548638
rtibia 16.7203
rfoot -15.3457 -7.91946
rtoes -2.51252
lfemur 7.36352 -7.40561 -26.8266
ltibia 26.8492
lfoot -17.3433 0.215524
ltoes -7.97248
